<?xml version="1.0" encoding="utf-8"?>
<!-- Generator: Adobe Illustrator 27.5.0, SVG Export Plug-In . SVG Version: 6.00 Build 0)  -->
<svg version="1.1" id="Layer_1" xmlns="http://www.w3.org/2000/svg" xmlns:xlink="http://www.w3.org/1999/xlink" x="0px" y="0px"
	 viewBox="0 0 502.45 463.91" style="enable-background:new 0 0 502.45 463.91;" xml:space="preserve">
<style type="text/css">
	.st0{fill:url(#SVGID_1_);}
	.st1{fill:#669ED4;}
	.st2{fill:#878787;}
	.st3{fill:url(#SVGID_00000106845094796101806570000008478308432809123754_);}
	.st4{fill:#CDE3F5;}
	.st5{fill:#AFBFBE;}
	.st6{fill:#21428C;}
	.st7{fill:#5F8FCA;}
	.st8{fill:#6C7F80;}
	.st9{fill:#5F8FCB;}
	.st10{fill:#20438B;}
</style>
<linearGradient id="SVGID_1_" gradientUnits="userSpaceOnUse" x1="693.1053" y1="14.5984" x2="845.6835" y2="-137.9798">
	<stop  offset="0" style="stop-color:#335F88"/>
	<stop  offset="0.114" style="stop-color:#396085"/>
	<stop  offset="0.2955" style="stop-color:#47657C"/>
	<stop  offset="0.5217" style="stop-color:#5B6C6E"/>
	<stop  offset="0.7814" style="stop-color:#737756"/>
	<stop  offset="1" style="stop-color:#87823A"/>
</linearGradient>
<circle class="st0" cx="757.72" cy="-50.02" r="188.85"/>
<path d="M1064.62,107.78L893.96,278.44L1007.6,279l57.02-57.02l70.56,70.55c-22.84,44.82-69.42,75.61-123.08,75.61
	c-76.13,0-138.08-61.94-138.08-138.08c0-76.14,61.94-138.08,138.08-138.08c15.36,0,30.12,2.56,43.93,7.21l-84.19-84.19
	C870.35,33.97,793.26,123.16,793.26,230.07c0,120.66,98.17,218.83,218.83,218.83c106.91,0,196.1-77.08,215.06-178.58L1064.62,107.78
	z"/>
<g>
	<path class="st1" d="M446.73,345.06c-4.9-4.9-9.79-9.79-14.62-14.62s-9.57-9.57-14.17-14.17c-4.6-4.6-9.05-9.05-13.27-13.27
		c-3.69-3.69-7.17-7.17-10.47-10.47c-22.84,44.82-69.42,75.61-123.08,75.61c-26.8,0-51.82-7.7-73.02-20.97
		c-23.25-14.55-41.86-35.82-53.13-61.07c-7.64-17.14-11.93-36.09-11.93-56.04c0-76.14,61.94-138.08,138.08-138.08
		c11.32,0,22.31,1.39,32.83,3.98c2.96,0.73,5-2.87,2.85-5.02l-74.05-74.05c-1.18-1.18-2.87-1.7-4.5-1.38
		C128.06,35.5,52.3,124.08,52.3,230.07c0,42.41,12.17,82.02,33.14,115.58c14.41,23.06,32.95,43.29,54.64,59.56
		c36.56,27.42,81.94,43.69,131.05,43.69c75.81,0,142.67-38.78,181.93-97.51C450.96,349.28,448.85,347.17,446.73,345.06z"/>
	<path class="st2" d="M446.73,345.06l-14.62-14.62C436.94,335.26,441.84,340.16,446.73,345.06z"/>
	<path class="st2" d="M417.95,316.27L404.68,303C408.9,307.22,413.35,311.67,417.95,316.27z"/>
	
		<linearGradient id="SVGID_00000002367710905846047740000012691236920360321182_" gradientUnits="userSpaceOnUse" x1="391.1634" y1="311.3832" x2="380.2532" y2="351.9692">
		<stop  offset="0" style="stop-color:#4679A2"/>
		<stop  offset="0.3352" style="stop-color:#4D80AB;stop-opacity:0.6648"/>
		<stop  offset="0.8672" style="stop-color:#6096C7;stop-opacity:0.1328"/>
		<stop  offset="1" style="stop-color:#669ED4;stop-opacity:0"/>
	</linearGradient>
	<path style="fill:url(#SVGID_00000002367710905846047740000012691236920360321182_);" d="M453.06,351.39
		c-2.11-2.11-4.22-4.22-6.33-6.33l-14.62-14.62c-4.82-4.82-9.57-9.57-14.17-14.17L404.68,303c-3.69-3.69-7.17-7.17-10.47-10.47
		c-17.96,35.25-50.63,61.74-89.85,71.48l62.63,62.63C401.88,409.54,431.61,383.48,453.06,351.39z"/>
	<path class="st4" d="M285.18,260.11l31.23-31.23c3.91-3.91,10.24-3.91,14.14,0l122.51,122.51c0.16-0.24,0.32-0.48,0.48-0.72
		c26.25-39.6,20.69-92.29-12.9-125.89l-110.09-110.1c-3.91-3.91-10.24-3.91-14.14,0L173.26,257.82c-1.89,1.89-0.55,5.12,2.12,5.12
		l102.72,0.09C280.76,263.04,283.3,261.98,285.18,260.11z"/>
</g>
<g id="Group_1">
	<g id="Group_2">
		<path id="Group_2_00000076593940142390375070000009076241223560882856_" class="st5" d="M-142.56-102.29l-20-20
			c-1.21-1.21-3.18-1.21-4.4,0l-20,20c-1.21,1.21-1.21,3.18,0,4.4l20,20c1.21,1.21,3.18,1.21,4.4,0l20-20
			C-141.34-99.1-141.34-101.07-142.56-102.29z"/>
		<g id="Group_1_00000069396667954180418850000001837058122590951610_">
			<path id="Group_2_00000002369988334615049480000004220571293703209121_" class="st6" d="M-162.56-77.88
				c-1.21,1.21-3.18,1.21-4.4,0l-20-20c-1.21-1.21-1.21-3.18,0-4.4l20-20c1.21-1.21,3.18-1.21,4.4,0l20,20
				c1.21,1.21,1.21,3.18,0,4.4L-162.56-77.88z M-141.15-103.7l-20-20c-1.99-1.99-5.24-1.99-7.23,0l-20,20
				c-1.99,1.99-1.99,5.24,0,7.23l20,20c1.99,1.99,5.24,1.99,7.23,0l20-20C-139.15-98.46-139.15-101.71-141.15-103.7z"/>
			<path id="Group_1_00000043433770330235177990000001214540128366371511_" class="st7" d="M-161.15-76.47
				c-1.99,1.99-5.24,1.99-7.23,0l-20-20c-1.99-1.99-1.99-5.24,0-7.23l20-20c1.99-1.99,5.24-1.99,7.23,0l20,20
				c1.99,1.99,1.99,5.24,0,7.23L-161.15-76.47z M-139.02-105.82l-20-20c-3.16-3.16-8.31-3.16-11.47,0l-20,20
				c-3.16,3.16-3.16,8.31,0,11.47l20,20c3.16,3.16,8.31,3.16,11.47,0l20-20C-135.86-97.51-135.86-102.66-139.02-105.82z"/>
		</g>
	</g>
	<path id="Group_1_00000131354433334663094800000011446976099341021353_" class="st8" d="M-182.09-107.16l-4.87,4.87
		c-1.21,1.21-1.21,3.18,0,4.4l20,20c0.61,0.61,1.4,0.91,2.2,0.91l0-23.11L-182.09-107.16z"/>
</g>
<g id="Group_3_00000173861323602408744750000008083086924809704088_">
	<g id="Group_3_00000151524163564096989750000009446079732527332785_">
		<path id="Group_2_00000182519227395736545480000016094972163779788729_" class="st6" d="M-217.51-143.59
			c0-8.95-7.28-16.22-16.22-16.22s-16.22,7.28-16.22,16.22s7.28,16.22,16.22,16.22S-217.51-134.64-217.51-143.59z"/>
		<path id="Group_1_00000033357727810471628490000010738101861251182500_" class="st7" d="M-249.95-143.59
			c0-8.95,7.28-16.22,16.22-16.22s16.22,7.28,16.22,16.22s-7.28,16.22-16.22,16.22S-249.95-134.64-249.95-143.59z M-233.73-163.81
			c-11.15,0-20.22,9.07-20.22,20.22c0,11.15,9.07,20.22,20.22,20.22c11.15,0,20.22-9.07,20.22-20.22
			C-213.51-154.74-222.58-163.81-233.73-163.81z"/>
	</g>
	<g id="Group_2_00000044872680416180536730000004951436453281598389_">
		<circle id="Group_1_00000182512061587383155410000002791483454863319228_" class="st5" cx="-233.73" cy="-143.59" r="13.97"/>
	</g>
	<g id="Group_1_00000177472860687773193180000002223976005151719079_">
		<path id="Group_1_00000066501272549325593870000014964709380774785470_" class="st8" d="M-243.45-145.51
			c0-4.28,1.7-8.16,4.45-11.01c-5.1,2.08-8.7,7.08-8.7,12.94c0,7.72,6.26,13.97,13.97,13.97c1.02,0,2.01-0.12,2.97-0.32
			C-238-131.42-243.45-137.83-243.45-145.51z"/>
	</g>
</g>
<g id="Group_2_00000153666323144582830090000007556398020035477124_">
	<path id="Group_3_00000116913710665094356410000014197095114354293417_" class="st6" d="M-277.23-82.24
		c-0.1,0.16-0.34,0.44-0.8,0.44h-21.53c-0.45,0-0.69-0.28-0.8-0.44s-0.25-0.5-0.05-0.91l6.12-12.85l-6.12-12.85
		c-0.19-0.41-0.05-0.74,0.05-0.91s0.35-0.44,0.8-0.44h21.53c0.45,0,0.69,0.28,0.8,0.44c0.1,0.16,0.25,0.5,0.05,0.91l-6.12,12.85
		l6.12,12.85C-276.98-82.74-277.13-82.4-277.23-82.24z M-278.87-95.99l5.3-11.13c0.73-1.54,0.63-3.32-0.28-4.76
		c-0.91-1.44-2.47-2.3-4.18-2.3h-21.53c-1.71,0-3.27,0.86-4.18,2.3c-0.91,1.44-1.02,3.22-0.28,4.76l5.3,11.13l-5.3,11.13
		c-0.73,1.54-0.63,3.32,0.28,4.76c0.91,1.44,2.47,2.3,4.18,2.3h21.53c1.71,0,3.27-0.86,4.18-2.3c0.91-1.44,1.02-3.22,0.28-4.76
		L-278.87-95.99z"/>
	<path id="Group_2_00000181071040060452066730000011862162210502365619_" class="st7" d="M-278.03-77.8h-21.53
		c-1.71,0-3.27-0.86-4.18-2.3c-0.91-1.44-1.02-3.22-0.28-4.76l5.3-11.13l-5.3-11.13c-0.73-1.54-0.63-3.32,0.28-4.76
		c0.91-1.44,2.47-2.3,4.18-2.3h21.53c1.71,0,3.27,0.86,4.18,2.3c0.91,1.44,1.02,3.22,0.28,4.76l-5.3,11.13l5.3,11.13
		c0.73,1.54,0.63,3.32-0.28,4.76C-274.76-78.66-276.32-77.8-278.03-77.8z M-274.44-95.99l4.48-9.41c1.33-2.79,1.14-6.01-0.51-8.62
		c-1.65-2.61-4.48-4.17-7.56-4.17h-21.53c-3.09,0-5.91,1.56-7.56,4.17c-1.65,2.61-1.84,5.83-0.51,8.62l4.48,9.41l-4.48,9.41
		c-1.33,2.79-1.14,6.01,0.51,8.62c1.65,2.61,4.48,4.17,7.56,4.17h21.53c3.09,0,5.91-1.56,7.56-4.17c1.65-2.61,1.84-5.83,0.51-8.62
		L-274.44-95.99z"/>
	<g id="Group_1_00000009575339560469355830000000104667756895036046_">
		<path id="Group_2_00000119119780144029847790000000840771466843731119_" class="st8" d="M-295.67-112.19h-3.9
			c-2.16,0-3.59,2.26-2.66,4.21l5.71,11.99L-302.22-84c-0.93,1.95,0.49,4.21,2.66,4.21h3.9l6.02-16.2L-295.67-112.19z"/>
		<path id="Group_1_00000018222100750236008010000007967549337150675093_" class="st5" d="M-275.37-107.98
			c0.93-1.95-0.49-4.21-2.66-4.21h-5.59h-5.18h-6.87l6.02,16.2l-6.02,16.2h6.87h5.18h5.59c2.16,0,3.59-2.26,2.66-4.21l-5.71-11.99
			L-275.37-107.98z"/>
	</g>
</g>
<path class="st5" d="M-22.62-173.04H-181.3c-5.69,0-10.3-4.61-10.3-10.3v-80.24c0-5.69,4.61-10.3,10.3-10.3h158.68
	c5.69,0,10.3,4.61,10.3,10.3v80.24C-12.32-177.66-16.93-173.04-22.62-173.04z"/>
<g>
	<path class="st9" d="M-116.43-250.97c1.12,0,2.27,0.28,3.35,0.91l17.99,10.39l17.99,10.39c4.48,2.58,4.48,9.05,0,11.63
		l-17.99,10.39l-17.99,10.39c-1.08,0.62-2.23,0.91-3.35,0.91c-3.51,0-6.73-2.8-6.73-6.73v-20.78v-20.78
		C-123.16-248.16-119.94-250.97-116.43-250.97 M-116.43-258.97L-116.43-258.97c-8.12,0-14.73,6.61-14.73,14.73v20.78v20.78
		c0,8.12,6.61,14.73,14.73,14.73c2.56,0,5.1-0.69,7.35-1.98l17.99-10.39l17.99-10.39c4.61-2.66,7.36-7.42,7.36-12.74
		c0-5.32-2.75-10.08-7.36-12.74l-17.99-10.39l-17.99-10.39C-111.33-258.28-113.87-258.97-116.43-258.97L-116.43-258.97z"/>
	<path class="st10" d="M-116.43-250.97c1.12,0,2.27,0.28,3.35,0.91l17.99,10.39l17.99,10.39c4.48,2.58,4.48,9.05,0,11.63
		l-17.99,10.39l-17.99,10.39c-1.08,0.62-2.23,0.91-3.35,0.91c-3.51,0-6.73-2.8-6.73-6.73v-20.78v-20.78
		C-123.16-248.16-119.94-250.97-116.43-250.97 M-116.43-253.97L-116.43-253.97c-5.36,0-9.73,4.36-9.73,9.73v20.78v20.78
		c0,5.36,4.36,9.73,9.73,9.73c1.68,0,3.36-0.45,4.85-1.31l17.99-10.39l17.99-10.39c3.04-1.76,4.86-4.9,4.86-8.41
		c0-3.51-1.82-6.66-4.86-8.41l-17.99-10.39l-17.99-10.39C-113.07-253.52-114.75-253.97-116.43-253.97L-116.43-253.97z"/>
	<path class="st5" d="M-123.16-223.47v-20.78c0-5.17,5.6-8.4,10.07-5.82l17.99,10.39l17.99,10.39c4.48,2.58,4.48,9.05,0,11.63
		l-17.99,10.39l-17.99,10.39c-4.48,2.58-10.07-0.65-10.07-5.82V-223.47z"/>
	<g>
		<path class="st8" d="M-108.46-202.15c-5.04,2.91-11.34-0.73-11.34-6.55v-23.39v-17.97c-1.96,1.13-3.35,3.23-3.35,5.81v20.78v20.78
			c0,5.17,5.6,8.4,10.07,5.82l17.99-10.39l17.99-10.39c1.79-1.03,2.85-2.68,3.21-4.46l-14.31,8.26L-108.46-202.15z"/>
	</g>
</g>
<path class="st1" d="M848.26,228.66L694.51,74.9c-3.9-3.9-10.24-3.9-14.14,0L560.09,195.19c-1.96,1.95-1.96,5.12,0,7.07l50.03,50.03
	c1.95,1.95,5.11,1.95,7.07,0l63.18-63.18c3.9-3.91,10.24-3.91,14.14,0l63.66,63.66l0.01,0.01l0.01,0.02
	c31.1,30.91,39.8,82.31,15.63,106.47c-0.11,0.11-0.22,0.22-0.31,0.32c16.75-13.73,31.44-29.91,43.51-47.97
	c5.06-7.57,9.67-15.47,13.77-23.66c8.59-17.11,15-35.5,18.85-54.8C849.97,231.53,849.44,229.84,848.26,228.66z"/>
<path class="st4" d="M440.64,224.77l-110.09-110.1c-3.9-3.9-10.24-3.9-14.14,0L173.26,257.82c-1.89,1.89-0.55,5.12,2.12,5.12
	l102.72,0.09c2.66,0,5.2-1.05,7.08-2.93l31.23-31.22c3.9-3.91,10.24-3.91,14.14,0l62.3,62.3c0.06,0.07,0.12,0.14,0.19,0.2l1.17,1.16
	c-0.01,0.01-0.01,0.01-0.02,0.02c13.82,13.96,46.41,72.73,3.82,115.33c0.03,0.09,0.06,0.17,0.11,0.24
	c21.55-15.43,40.19-34.68,54.94-56.74c0.16-0.25,0.32-0.49,0.48-0.73c8.62-13,13.81-27.41,15.7-42.09
	C473.13,278.53,463.21,247.34,440.64,224.77z"/>
</svg>
